<svg width="151" height="80" viewBox="0 0 151 80" fill="none" xmlns="http://www.w3.org/2000/svg">
<path d="M111.35 50.9923C111.55 51.1923 111.75 51.4923 112.05 51.7923C112.45 52.0923 112.75 52.4923 113.25 52.7923C114.15 53.4923 115.45 54.1923 117.05 54.5923C117.95 54.6923 118.85 54.7923 119.75 54.6923C120.75 54.6923 121.75 54.4923 122.75 54.0923C124.75 53.2923 126.65 51.6923 128.05 49.4923C129.45 47.2923 130.25 44.4923 129.85 41.4923C129.65 39.9923 129.15 38.4923 128.35 37.0923C127.55 35.7923 126.55 34.3923 125.25 33.3923C123.95 32.2923 122.35 31.3923 120.75 30.6923C119.05 30.0923 117.25 29.7923 115.35 29.7923C113.55 29.7923 111.65 30.1923 109.85 30.9923C109.45 31.1923 108.95 31.2923 108.55 31.5923C108.15 31.8923 107.65 32.0923 107.25 32.3923C106.45 32.9256 105.683 33.559 104.95 34.2923C101.95 36.9923 99.8501 40.9923 99.3501 45.2923C98.7501 49.5923 99.7501 54.1923 102.45 57.9923C105.05 61.8923 108.95 64.9923 113.65 66.6923C115.85 67.4923 118.35 67.8923 120.85 67.9923C123.35 68.0923 125.85 67.6923 128.35 66.9923C129.55 66.5923 130.717 66.0923 131.85 65.4923C132.117 65.359 132.383 65.1923 132.65 64.9923L133.55 64.4923L134.35 63.9923L134.75 63.6923L135.15 63.3923L135.95 62.7923L136.75 62.1923L137.05 61.8923L137.45 61.4923C137.717 61.2923 137.95 61.0923 138.15 60.8923C139.15 59.959 140.05 58.959 140.85 57.8923C144.15 53.6923 146.35 48.4923 146.85 42.9923C147.45 37.4923 146.35 31.7923 143.75 26.6923C143.45 26.0923 143.05 25.4923 142.65 24.8923C142.25 24.2923 141.95 23.6923 141.45 23.0923L140.85 22.2923C140.783 22.0923 140.683 21.9256 140.55 21.7923L140.25 21.3923L139.55 20.5923C139.283 20.3256 139.05 20.059 138.85 19.7923C136.95 17.6923 134.85 15.7923 132.55 14.1923C130.25 12.5923 127.75 11.2923 125.25 10.2923C122.65 9.19228 119.95 8.49229 117.35 8.09229C111.95 7.19229 106.55 7.59229 101.45 9.09229C98.9834 9.82562 96.6168 10.7923 94.3501 11.9923C93.7501 12.3256 93.1834 12.659 92.6501 12.9923C92.1168 13.259 91.5834 13.5923 91.0501 13.9923C89.9834 14.7256 88.9834 15.4923 88.0501 16.2923C84.0501 19.4923 80.5501 23.1923 77.2501 26.7923C73.9501 30.4923 70.7501 34.0923 67.6501 37.5923C61.3501 44.4923 55.1501 50.6923 48.9501 55.6923C45.8168 58.1589 42.6834 60.3256 39.5501 62.1923C37.9501 63.0589 36.3834 63.859 34.8501 64.5923C33.3168 65.3256 31.8168 65.9923 30.3501 66.5923C24.4501 68.8923 19.0501 69.8923 14.5501 70.2923C14.0168 70.2923 13.4834 70.3256 12.9501 70.3923C12.4168 70.3923 11.9168 70.3923 11.4501 70.3923C10.4501 70.3923 9.55009 70.4923 8.65009 70.3923C8.25009 70.3923 7.8501 70.3923 7.4501 70.3923C7.0501 70.3256 6.68343 70.2923 6.3501 70.2923C5.9501 70.2923 5.58342 70.2589 5.25009 70.1923C4.91676 70.1923 4.61676 70.1923 4.3501 70.1923C3.7501 70.1256 3.2501 70.059 2.8501 69.9923C2.38343 69.9256 2.01676 69.8589 1.75009 69.7923C2.01676 69.7923 2.38343 69.8256 2.8501 69.8923C3.2501 69.8923 3.7501 69.9256 4.3501 69.9923C4.68343 69.9923 4.98342 69.9923 5.25009 69.9923C5.58342 69.9923 5.9501 70.0256 6.3501 70.0923C6.68343 70.0923 7.0501 70.0923 7.4501 70.0923C7.8501 70.0923 8.25009 70.0923 8.65009 70.0923C9.55009 70.0923 10.4501 69.9923 11.4501 69.8923C11.9168 69.8923 12.4168 69.8589 12.9501 69.7923C13.4168 69.7923 13.9501 69.7589 14.5501 69.6923C18.8501 69.0923 24.1501 67.8923 29.9501 65.4923C31.3501 64.8923 32.7834 64.1923 34.2501 63.3923C35.7168 62.5923 37.2168 61.7256 38.7501 60.7923C41.6834 58.9256 44.6501 56.7256 47.6501 54.1923C53.7501 49.1923 59.6501 42.8923 65.6501 35.7923C68.6501 32.2923 71.7501 28.5923 75.0501 24.8923C78.3501 21.0923 81.8501 17.2923 85.9501 13.7923C86.9501 12.9256 88.0168 12.0923 89.1501 11.2923C89.7501 10.8923 90.3168 10.4923 90.8501 10.0923C91.4501 9.75895 92.0501 9.3923 92.6501 8.9923C95.1501 7.6923 97.7501 6.59229 100.55 5.69229C105.95 4.09229 111.95 3.5923 117.85 4.4923C120.85 4.8923 123.75 5.69228 126.55 6.79228C129.45 7.89228 132.15 9.29229 134.65 11.0923C137.25 12.7923 139.55 14.8923 141.65 17.1923C141.917 17.5256 142.183 17.8256 142.45 18.0923L143.25 18.9923L143.55 19.4923C143.683 19.6256 143.817 19.7923 143.95 19.9923L144.65 20.8923C145.05 21.4923 145.55 22.1923 145.95 22.8923C146.35 23.5923 146.75 24.1923 147.15 24.9923C147.883 26.3923 148.517 27.859 149.05 29.3923C149.55 30.8923 149.95 32.3923 150.25 33.9923C150.55 35.4923 150.75 37.0923 150.85 38.6923C150.85 40.1923 150.85 41.7923 150.65 43.3923C150.05 49.5923 147.55 55.4923 143.75 60.1923C142.817 61.3923 141.783 62.4923 140.65 63.4923C140.383 63.759 140.117 64.0256 139.85 64.2923L139.45 64.5923L139.05 64.9923L138.15 65.6923L137.25 66.2923L136.75 66.6923L136.35 66.9923L135.35 67.5923L134.45 68.0923C134.117 68.2923 133.783 68.459 133.45 68.5923C132.117 69.259 130.75 69.8256 129.35 70.2923C126.55 71.0923 123.65 71.4923 120.75 71.3923C117.85 71.2923 115.05 70.6923 112.45 69.6923C111.183 69.1589 109.95 68.559 108.75 67.8923C107.55 67.2256 106.417 66.459 105.35 65.5923C103.25 63.8923 101.45 61.8923 100.05 59.6923C98.5501 57.4923 97.4501 54.9923 96.9501 52.4923C96.4501 49.9923 96.3501 47.3923 96.7501 44.8923C97.4501 39.9923 99.9501 35.5923 103.35 32.5923C104.217 31.7923 105.117 31.0923 106.05 30.4923C106.55 30.1923 107.05 29.9923 107.55 29.6923C108.05 29.3923 108.55 29.1923 109.05 28.9923C111.15 28.1923 113.25 27.7923 115.35 27.8923C117.45 27.8923 119.55 28.3923 121.35 29.0923C123.25 29.8923 124.85 30.8923 126.25 32.1923C126.583 32.5256 126.917 32.8589 127.25 33.1923C127.517 33.5256 127.817 33.8589 128.15 34.1923L128.35 34.4923L128.55 34.7923C128.617 34.9256 128.717 35.0923 128.85 35.2923C128.983 35.4923 129.117 35.6923 129.25 35.8923C129.383 36.0923 129.483 36.2923 129.55 36.4923C130.45 37.9923 130.85 39.6923 131.05 41.2923C131.25 42.9923 131.05 44.5923 130.65 46.0923C130.517 46.4256 130.417 46.759 130.35 47.0923C130.15 47.4923 129.983 47.8589 129.85 48.1923C129.717 48.4589 129.55 48.759 129.35 49.0923C129.25 49.3923 128.95 49.6923 128.85 49.9923C128.65 50.2923 128.45 50.5923 128.15 50.7923C127.95 51.059 127.75 51.3256 127.55 51.5923C127.283 51.859 127.05 52.0923 126.85 52.2923C126.583 52.4923 126.317 52.6923 126.05 52.8923L125.85 52.9923L125.65 53.1923C125.583 53.2589 125.483 53.3256 125.35 53.3923C125.05 53.5923 124.85 53.7923 124.55 53.8923C124.25 54.0923 124.05 54.1923 123.75 54.2923C123.483 54.4256 123.217 54.5256 122.95 54.5923C121.85 54.9923 120.75 55.1923 119.75 55.1923C118.75 55.1923 117.85 55.0923 116.95 54.8923C115.35 54.4923 114.05 53.6923 113.15 52.8923C112.65 52.5923 112.35 52.1923 112.05 51.8923C111.75 51.4923 111.45 51.2923 111.35 50.9923Z" fill="#FFC520"/>
<path d="M41.9501 19.5925C41.9501 19.5925 42.0501 19.6925 42.2501 19.8925C42.3168 20.0258 42.4168 20.1925 42.5501 20.3925C42.6834 20.5258 42.8168 20.7258 42.9501 20.9925C43.1501 21.1925 43.3168 21.4591 43.4501 21.7925C43.5168 21.9925 43.5834 22.1591 43.6501 22.2925C43.7168 22.4925 43.7834 22.6925 43.8501 22.8925C44.1501 23.6925 44.3501 24.6925 44.3501 25.7925C44.3501 26.8925 44.0501 28.0925 43.5501 29.3925C43.0501 30.6925 42.0501 31.8925 40.8501 32.8925C39.5501 33.9925 38.0501 34.7925 36.2501 35.2925C34.4501 35.6925 32.4501 35.6925 30.3501 35.1925C28.3501 34.6925 26.3501 33.5925 24.7501 31.9925C23.9501 31.0925 23.2501 30.1925 22.6501 29.1925C22.4501 28.9925 22.3501 28.6925 22.2501 28.3925C22.0501 28.0925 21.9501 27.8925 21.8501 27.5925C21.7168 27.3258 21.5834 27.0591 21.4501 26.7925C21.3834 26.5925 21.3501 26.4258 21.3501 26.2925L21.1501 25.8925C21.0834 25.5592 21.0168 25.2592 20.9501 24.9925C20.8834 24.6592 20.8168 24.3592 20.7501 24.0925L20.6501 23.5925C20.6501 23.4592 20.6501 23.2925 20.6501 23.0925C20.5834 22.7592 20.5501 22.4591 20.5501 22.1925C20.5501 20.8925 20.5501 19.5925 20.9501 18.2925C21.0501 17.5925 21.2501 16.9925 21.4501 16.2925C21.5834 16.0258 21.7168 15.7258 21.8501 15.3925L22.0501 14.8925C22.1168 14.7592 22.1834 14.6258 22.2501 14.4925C22.4501 14.1592 22.6168 13.8592 22.7501 13.5925C22.9501 13.2592 23.1501 12.9592 23.3501 12.6925C23.4834 12.5592 23.5834 12.4258 23.6501 12.2925L24.0501 11.8925C24.2501 11.6258 24.4834 11.3592 24.7501 11.0925C24.9501 10.8258 25.1834 10.5591 25.4501 10.2925C25.5834 10.1591 25.7168 10.0258 25.8501 9.89249L26.2501 9.59248C26.5168 9.39248 26.8168 9.19249 27.1501 8.99249L27.3501 8.79248C27.4168 8.72581 27.4834 8.69249 27.5501 8.69249L27.9501 8.39249C28.2834 8.19249 28.5834 7.99248 28.8501 7.79248C29.1834 7.59248 29.5168 7.42581 29.8501 7.29248L30.3501 7.09248C30.4834 6.95915 30.6501 6.85915 30.8501 6.79248C31.1834 6.65915 31.5168 6.52582 31.8501 6.39249L32.3501 6.29248L32.9501 6.09248C33.2834 6.02582 33.6168 5.92581 33.9501 5.79248C34.3501 5.69248 34.7501 5.69248 35.0501 5.59248C35.4501 5.59248 35.8501 5.49249 36.1501 5.39249C36.5501 5.39249 36.9168 5.39249 37.2501 5.39249C37.4501 5.32582 37.6501 5.29248 37.8501 5.29248H38.4501C38.7834 5.35915 39.1501 5.39249 39.5501 5.39249C39.9501 5.39249 40.3168 5.42583 40.6501 5.49249C41.4501 5.59249 42.2501 5.79249 42.9501 5.89249C43.3501 5.99249 43.6501 6.09249 44.0501 6.19249C44.4501 6.32582 44.8168 6.45915 45.1501 6.59248C45.5501 6.79248 45.9168 6.95915 46.2501 7.09248L46.7501 7.29248L47.2501 7.59248C47.6501 7.79248 48.0168 7.99249 48.3501 8.19249C48.6834 8.39249 49.0168 8.62582 49.3501 8.89249C49.9501 9.29249 50.5501 9.79249 51.1501 10.3925C51.4501 10.5925 51.7501 10.8925 52.0501 11.1925C52.3168 11.4592 52.5834 11.7592 52.8501 12.0925C53.8501 13.2925 54.7501 14.5925 55.5501 15.9925C57.0501 18.8925 57.8501 21.9925 57.9501 25.0925C58.1501 28.1925 57.6501 31.2925 56.6501 34.0925C55.7501 36.8925 54.3501 39.4925 52.6501 41.7925C51.8501 42.9258 50.9834 43.9925 50.0501 44.9925C49.1834 45.9258 48.3168 46.8591 47.4501 47.7925C45.6501 49.5925 43.8501 51.3925 42.0501 53.0925C40.2501 54.7592 38.4168 56.2925 36.5501 57.6925C32.8501 60.3925 29.0501 62.4925 25.3501 63.8925C24.4501 64.2925 23.5501 64.5925 22.7501 64.8925C21.8501 65.1925 20.9501 65.4925 20.1501 65.6925C18.4501 66.1925 16.8501 66.5925 15.3501 66.8925C12.2501 67.4925 9.65011 67.6925 7.55011 67.8925C6.95011 67.9592 6.41677 67.9925 5.9501 67.9925C5.48344 67.9925 5.05009 68.0258 4.65009 68.0925C4.25009 68.0925 3.8501 68.0925 3.4501 68.0925C3.11677 68.0925 2.81678 68.0925 2.55011 68.0925C1.41678 68.0925 0.850098 68.0925 0.850098 68.0925C0.850098 68.0925 1.41678 68.0592 2.55011 67.9925C2.81678 67.9258 3.11677 67.8925 3.4501 67.8925C3.8501 67.8258 4.25009 67.7591 4.65009 67.6925C5.05009 67.6258 5.48344 67.5925 5.9501 67.5925C6.41677 67.4592 6.91677 67.3591 7.4501 67.2925C9.5501 66.9925 12.1501 66.4925 15.0501 65.6925C16.4501 65.2925 18.0501 64.7925 19.6501 64.1925C20.4501 63.9925 21.2501 63.5925 22.1501 63.2925C22.9501 62.8925 23.7501 62.5925 24.6501 62.1925C28.0501 60.4925 31.5501 58.3925 34.9501 55.5925C36.6834 54.1925 38.3834 52.6592 40.0501 50.9925C41.7501 49.2925 43.3501 47.4925 45.0501 45.5925C45.8501 44.6592 46.6834 43.6925 47.5501 42.6925C48.3501 41.7591 49.1168 40.7925 49.8501 39.7925C51.2501 37.6925 52.4501 35.3925 53.1501 32.9925C53.9501 30.4925 54.3501 27.8925 54.1501 25.2925C54.0501 22.6925 53.3501 20.1925 52.1501 17.7925C51.4834 16.6591 50.7168 15.5925 49.8501 14.5925L49.2501 13.7925C49.0501 13.5925 48.8501 13.3925 48.5501 13.1925C48.0501 12.6925 47.6501 12.2925 47.0501 11.9925C46.8501 11.7925 46.6168 11.5925 46.3501 11.3925C46.0168 11.2592 45.7168 11.0925 45.4501 10.8925L45.0501 10.6925L44.6501 10.4925C44.3834 10.3592 44.0834 10.2258 43.7501 10.0925C43.4834 9.95915 43.2168 9.85915 42.9501 9.79248C42.6501 9.69248 42.3501 9.59249 42.0501 9.49249C41.4501 9.39249 40.8501 9.19248 40.1501 9.09248C39.8834 9.09248 39.5834 9.05916 39.2501 8.99249C38.9834 8.99249 38.6834 8.99249 38.3501 8.99249H37.8501C37.7168 8.99249 37.5834 8.99249 37.4501 8.99249C37.1168 8.99249 36.8168 8.99249 36.5501 8.99249C36.2501 8.99249 35.9501 9.09248 35.6501 9.09248C35.3501 9.19248 35.0501 9.19248 34.7501 9.29248C34.4168 9.35915 34.1168 9.42583 33.8501 9.49249L33.4501 9.59248L32.9501 9.69249C32.6834 9.82582 32.4168 9.92583 32.1501 9.99249C32.0168 10.0592 31.8834 10.1258 31.7501 10.1925L31.3501 10.3925C31.0834 10.5258 30.8168 10.6591 30.5501 10.7925C30.2834 10.9258 30.0168 11.0592 29.7501 11.1925L29.3501 11.3925C29.3501 11.4592 29.3168 11.5258 29.2501 11.5925L29.0501 11.6925C28.7834 11.8925 28.5501 12.0592 28.3501 12.1925L27.9501 12.4925C27.8834 12.5592 27.7834 12.6258 27.6501 12.6925C27.4501 12.8925 27.2501 13.0925 27.0501 13.2925C26.8501 13.4925 26.6501 13.6925 26.4501 13.8925L26.1501 14.1925C26.0834 14.3258 26.0168 14.4592 25.9501 14.5925C25.7501 14.7925 25.5834 14.9925 25.4501 15.1925C25.3168 15.4592 25.1834 15.6925 25.0501 15.8925C24.9834 16.0258 24.9168 16.1591 24.8501 16.2925L24.6501 16.6925C24.5168 16.8925 24.3834 17.1258 24.2501 17.3925C24.1501 17.8925 23.8501 18.3925 23.7501 18.9925C23.4501 19.9925 23.3501 21.0925 23.3501 22.0925C23.3501 22.3592 23.3501 22.6258 23.3501 22.8925C23.3501 23.0258 23.3501 23.1591 23.3501 23.2925L23.4501 23.6925C23.4501 23.9591 23.4834 24.1925 23.5501 24.3925C23.6168 24.6592 23.6834 24.9258 23.7501 25.1925L23.8501 25.5925C23.8501 25.6592 23.8834 25.7592 23.9501 25.8925C24.0168 26.1592 24.0834 26.3925 24.1501 26.5925C24.2501 26.8925 24.3501 27.0925 24.4501 27.2925C24.5501 27.5925 24.6501 27.7925 24.7501 27.9925C25.2501 28.8925 25.7501 29.6925 26.4501 30.3925C27.6501 31.8925 29.2501 32.7925 30.9501 33.3925C32.5501 33.8925 34.3501 33.9925 35.9501 33.6925C37.4501 33.3925 38.9501 32.7925 40.0501 31.9925C41.2501 31.1925 42.1501 30.0925 42.7501 28.9925C43.3501 27.8925 43.6501 26.7925 43.7501 25.7925C43.8501 24.6925 43.7501 23.7925 43.5501 22.9925C43.4834 22.7925 43.4168 22.5925 43.3501 22.3925C43.2834 22.2592 43.2501 22.0925 43.2501 21.8925C43.1168 21.5592 42.9834 21.2925 42.8501 21.0925C42.7168 20.8258 42.5834 20.5925 42.4501 20.3925C42.3834 20.1925 42.2834 20.0592 42.1501 19.9925C42.0168 19.7258 41.9501 19.5925 41.9501 19.5925Z" fill="#FFC520"/>
<path d="M1.8501 69.9923C2.0501 70.059 2.2501 70.1256 2.4501 70.1923C2.6501 70.2589 2.88342 70.3256 3.15009 70.3923C3.65009 70.4923 4.2501 70.6923 4.9501 70.7923C7.6501 71.3923 11.6501 71.8923 16.6501 71.6923C19.0501 71.5923 21.7501 71.3923 24.6501 70.8923C27.5168 70.4256 30.5501 69.759 33.7501 68.8923C36.8501 67.9923 40.1501 66.7923 43.4501 65.3923C46.7501 63.9923 50.0501 62.2923 53.2501 60.2923C54.3834 59.6256 55.4501 58.8923 56.4501 58.0923C57.4501 57.359 58.4501 56.5923 59.4501 55.7923C60.3501 54.9923 61.3501 54.2923 62.2501 53.4923C63.1834 52.6923 64.0834 51.8923 64.9501 51.0923C68.3501 47.8923 71.4501 44.6923 74.2501 41.7923C77.1501 38.8923 79.7501 36.1923 82.0501 33.8923C82.6501 33.359 83.2168 32.8256 83.7501 32.2923C84.3501 31.7923 84.8501 31.1923 85.4501 30.7923C85.9168 30.3256 86.4168 29.859 86.9501 29.3923C87.1501 29.1923 87.3834 28.9923 87.6501 28.7923C87.8501 28.5923 88.0501 28.3923 88.2501 28.1923C89.2501 27.5923 90.2501 26.7923 91.4501 25.9923C92.0501 25.5923 92.6501 25.1923 93.2501 24.7923C93.9168 24.3923 94.5834 23.9923 95.2501 23.5923C95.6501 23.3923 95.9501 23.0923 96.3501 22.9923C96.7501 22.7923 97.1501 22.5923 97.5501 22.3923C98.2501 21.9923 99.0501 21.4923 99.8501 21.1923C101.55 20.4923 103.35 19.8923 105.25 19.4923C107.25 19.0923 109.25 18.8923 111.45 18.8923C113.55 18.9923 115.75 19.2923 117.95 19.7923C120.15 20.2923 122.35 21.1923 124.45 22.1923C125.45 22.7923 126.45 23.3923 127.45 24.0923C127.95 24.4923 128.35 24.8923 128.85 25.2923L129.45 25.8923L129.85 26.1923L130.15 26.4923C132.65 29.0923 134.35 32.1923 135.15 35.3923C135.35 36.2923 135.55 37.0923 135.65 37.8923C135.85 38.6923 135.85 39.5923 135.95 40.3923C136.017 41.9923 135.883 43.559 135.55 45.0923C135.283 46.6256 134.783 48.0256 134.05 49.2923C133.95 49.5923 133.75 49.9923 133.55 50.2923C133.35 50.5589 133.15 50.8589 132.95 51.1923C132.75 51.4589 132.55 51.7256 132.35 51.9923C132.15 52.2923 131.85 52.4923 131.65 52.6923C130.65 53.6923 129.583 54.5256 128.45 55.1923C127.35 55.7923 126.25 56.2923 125.05 56.5923C124.783 56.659 124.517 56.6923 124.25 56.6923C123.917 56.7589 123.617 56.8256 123.35 56.8923C123.217 56.8923 123.083 56.8923 122.95 56.8923C122.817 56.8923 122.683 56.8923 122.55 56.8923C122.25 56.8923 122.05 56.9923 121.75 56.9923C121.25 56.8923 120.65 56.8923 120.15 56.7923C119.95 56.7923 119.65 56.7923 119.45 56.6923C119.183 56.6256 118.95 56.559 118.75 56.4923C116.95 56.0923 115.45 55.1923 114.35 54.3923C113.35 53.4923 112.65 52.6923 112.15 52.0923C111.75 51.559 111.55 51.2923 111.55 51.2923C111.55 51.2923 111.75 51.5923 112.15 52.1923C112.55 52.7923 113.15 53.6923 114.15 54.5923C115.15 55.5923 116.65 56.5923 118.55 57.1923C118.817 57.2589 119.05 57.3256 119.25 57.3923C119.55 57.4923 119.75 57.4923 120.05 57.5923C120.55 57.6923 121.15 57.7923 121.65 57.7923C121.95 57.8923 122.25 57.7923 122.55 57.8923C122.683 57.8923 122.85 57.8923 123.05 57.8923C123.183 57.8923 123.317 57.8589 123.45 57.7923C123.783 57.7923 124.083 57.7923 124.35 57.7923C124.683 57.7256 125.017 57.659 125.35 57.5923C126.55 57.3923 127.85 56.8923 129.05 56.2923C130.35 55.6923 131.55 54.7923 132.65 53.7923C134.85 51.6923 136.55 48.7923 137.35 45.4923C137.75 43.8256 137.917 42.0923 137.85 40.2923C137.85 39.3923 137.75 38.4923 137.65 37.5923C137.55 36.6923 137.35 35.7923 137.15 34.8923C136.75 33.0923 136.05 31.3923 135.15 29.6923C134.25 27.9923 133.05 26.3923 131.65 24.9923L131.35 24.5923L130.95 24.2923C130.683 24.0923 130.45 23.859 130.25 23.5923C129.75 23.1923 129.25 22.7923 128.65 22.3923C127.65 21.5923 126.55 20.9923 125.35 20.3923C123.15 19.1923 120.75 18.3923 118.35 17.8923C116.05 17.2923 113.65 17.0923 111.45 17.0923C109.15 17.1923 106.95 17.4923 104.95 17.8923C102.95 18.3923 101.05 19.0923 99.3501 19.9923C98.4501 20.3923 97.6501 20.8923 96.9501 21.2923C96.5501 21.5589 96.1834 21.7923 95.8501 21.9923C95.4501 22.1923 95.0501 22.4923 94.7501 22.6923C94.0834 23.1589 93.4168 23.5923 92.7501 23.9923C92.1501 24.459 91.5501 24.9256 90.9501 25.3923C89.8501 26.1923 88.8501 27.0923 87.9501 27.7923C87.7501 27.9923 87.5168 28.1589 87.2501 28.2923C86.9834 28.4923 86.7168 28.6923 86.4501 28.8923C85.9834 29.2923 85.4501 29.7256 84.8501 30.1923C84.3501 30.5923 83.7501 31.0923 83.1501 31.5923C82.6168 32.059 82.0168 32.559 81.3501 33.0923C78.8501 35.2923 76.1501 37.8923 73.1501 40.6923C70.2501 43.3923 67.0501 46.4923 63.5501 49.5923C62.6834 50.3256 61.8168 51.0923 60.9501 51.8923C60.0501 52.6923 59.0501 53.3923 58.1501 54.1923C57.1501 54.9256 56.1834 55.659 55.2501 56.3923C54.2501 57.1256 53.2168 57.8256 52.1501 58.4923C48.9501 60.3923 45.7501 62.0923 42.6501 63.4923C39.4501 64.959 36.3168 66.159 33.2501 67.0923C30.1834 68.0923 27.2168 68.8923 24.3501 69.4923C21.5501 70.0923 18.9501 70.3923 16.5501 70.6923C11.6501 71.0923 7.75011 70.8923 5.05011 70.4923C4.35011 70.3923 3.75009 70.2923 3.25009 70.1923C2.98342 70.1256 2.71677 70.0923 2.4501 70.0923C2.2501 70.0256 2.0501 69.9923 1.8501 69.9923Z" fill="#FFC520"/>
<path d="M20.15 43.2924C20.95 43.4924 21.4501 44.6924 21.5501 46.4924C21.5501 48.2924 21.1501 50.6924 20.0501 53.2924C19.7501 53.8924 19.3501 54.6924 18.8501 55.5924C18.3501 56.4924 17.6501 57.4924 16.8501 58.4924C16.0501 59.5924 15.0501 60.5924 14.0501 61.5924C12.9501 62.4924 11.85 63.3924 10.65 64.0924C8.25005 65.5924 5.65006 66.2924 3.85006 66.4924C1.95006 66.6924 0.850059 66.4924 0.850059 66.2924C0.750059 66.0924 1.85006 65.7924 3.35006 64.9924C4.95006 64.1924 6.75006 62.9924 8.35006 61.2924C10.0501 59.5924 11.3501 57.4924 12.3501 55.5924C12.7501 54.5924 13.2501 53.6924 13.5501 52.8924C13.9501 51.9924 14.1501 51.2924 14.4501 50.7924C15.3501 48.5924 16.3501 46.6924 17.3501 45.2924C18.3501 43.8924 19.35 43.0924 20.15 43.2924Z" fill="#FFC520"/>
<path d="M50.8501 72.9924C51.1501 73.9924 51.0501 74.9924 50.5501 75.8924C50.0501 76.6924 49.15 77.2924 48.15 77.5924C47.05 77.8924 46.0501 77.5924 45.2501 77.0924C44.4501 76.5924 43.85 75.7924 43.65 74.6924C43.45 73.6924 43.7501 72.7924 44.2501 71.9924C44.7501 71.1924 45.5501 70.5924 46.4501 70.3924C47.3501 70.0924 48.35 70.2924 49.15 70.7924C49.95 71.2924 50.5501 72.0924 50.8501 72.9924Z" fill="#FFC520"/>
<path d="M58.3501 70.0925C58.7501 70.8925 58.8502 71.6925 58.5502 72.4925C58.4168 72.8925 58.1835 73.2258 57.8501 73.4925C57.5835 73.8258 57.2168 74.0591 56.7501 74.1925C55.9501 74.5925 55.0501 74.5925 54.2501 74.1925C53.5501 73.8925 52.9501 73.2925 52.6501 72.4925C52.4501 71.6925 52.4501 70.7925 52.7501 70.0925C53.0501 69.3925 53.6501 68.8925 54.3501 68.4925C54.7501 68.3592 55.1502 68.2925 55.5502 68.2925C55.8835 68.2925 56.2501 68.3592 56.6501 68.4925C57.3501 68.7925 57.9501 69.2925 58.3501 70.0925Z" fill="#FFC520"/>
<path d="M64.4498 66.3924C64.8498 66.9924 64.9498 67.6924 64.8498 68.3924C64.7498 69.0924 64.2498 69.6924 63.6498 70.0924C63.3165 70.2924 62.9831 70.4258 62.6498 70.4924C62.2498 70.5591 61.8832 70.5591 61.5498 70.4924C60.8498 70.2924 60.3498 69.8924 59.9498 69.2924C59.6498 68.5924 59.5498 67.8924 59.6498 67.2924C59.7831 66.9591 59.9165 66.6591 60.0498 66.3924C60.2498 66.1258 60.5165 65.8924 60.8498 65.6924C61.3498 65.2924 62.0498 65.1924 62.7498 65.2924C63.3498 65.4924 63.9498 65.7924 64.4498 66.3924Z" fill="#FFC520"/>
<path d="M68.9503 62.8924C69.6503 63.6924 69.5502 64.9924 68.6502 65.6924C67.7502 66.4924 66.4503 66.2924 65.7503 65.3924C65.1503 64.4924 65.2502 63.2924 66.1502 62.5924C66.9502 61.8924 68.1503 61.9924 68.9503 62.8924Z" fill="#FFC520"/>
<path d="M72.4503 59.4925C73.1503 60.0925 73.0503 61.0925 72.4503 61.6925C71.8503 62.2925 70.8503 62.2925 70.2503 61.6925C69.6503 60.9925 69.7503 60.0925 70.3503 59.4925C70.9503 58.8925 71.8503 58.8925 72.4503 59.4925Z" fill="#FFC520"/>
<path d="M35.6497 75.9926C35.8497 77.6926 37.4497 78.8926 39.1497 78.5926C40.9497 78.3926 42.0497 76.7926 41.7497 75.0926C41.5497 73.3926 39.9497 72.1926 38.2497 72.4926C36.6497 72.6926 35.4497 74.2926 35.6497 75.9926Z" fill="#FFC520"/>
<path d="M28.6499 76.6927C28.6499 77.3927 29.0499 77.9927 29.5499 78.4927C30.0499 78.8927 30.7499 79.1927 31.5499 79.0927C32.2499 78.9927 32.9499 78.6927 33.3499 78.0927C33.7499 77.5927 33.9499 76.8927 33.9499 76.1927C33.8499 75.4927 33.4499 74.8927 32.9499 74.3927C32.4499 73.9927 31.7499 73.7927 31.0499 73.8927C30.3499 73.8927 29.7499 74.2927 29.2499 74.7927C28.8499 75.2927 28.6499 75.9927 28.6499 76.6927Z" fill="#FFC520"/>
<path d="M22.9498 76.6925C22.8498 77.2925 23.0498 77.7925 23.4498 78.1925C23.8498 78.5925 24.3498 78.7925 24.9498 78.7925C26.0498 78.7925 26.9498 77.8925 26.9498 76.7925C26.8498 75.5925 25.9498 74.7925 24.9498 74.7925C24.3498 74.7925 23.9498 74.9925 23.5498 75.2925C23.1498 75.6925 22.9498 76.1925 22.9498 76.6925Z" fill="#FFC520"/>
<path d="M18.15 75.9927C17.95 76.3927 17.95 76.7927 18.15 77.1927C18.35 77.5927 18.75 77.8927 19.25 77.9927C19.75 78.0927 20.25 77.9927 20.55 77.6927C20.85 77.4927 21.05 77.0927 21.15 76.5927C21.15 75.7927 20.55 75.0927 19.85 74.8927C19.5167 74.826 19.2167 74.8927 18.95 75.0927C18.65 75.2927 18.35 75.5927 18.15 75.9927Z" fill="#FFC520"/>
<path d="M55.65 5.19248C55.35 5.49248 55.05 5.59247 54.65 5.59247C54.5167 5.59247 54.35 5.59247 54.15 5.59247C54.0167 5.5258 53.8833 5.4258 53.75 5.29247C53.45 5.09247 53.35 4.79248 53.25 4.49248C53.25 4.09248 53.25 3.69247 53.45 3.39247C53.65 3.09247 53.95 2.89247 54.35 2.79247C54.75 2.69247 55.15 2.89247 55.55 3.09247C55.6834 3.2258 55.8167 3.39247 55.95 3.59247C56.0167 3.79247 56.05 3.99248 56.05 4.19248C56.15 4.49248 55.95 4.89248 55.65 5.19248Z" fill="#FFC520"/>
<path d="M57.4501 7.69253C57.1501 7.79253 56.8501 7.89252 56.5501 7.79252C56.3501 7.69252 56.0501 7.59252 55.8501 7.29252C55.7168 7.02585 55.6835 6.7592 55.7501 6.49253C55.7501 6.19253 55.8501 5.89253 56.1501 5.69253C56.4168 5.49253 56.7168 5.42586 57.0501 5.49253C57.3501 5.49253 57.6501 5.69253 57.8501 5.99253C58.0501 6.29253 58.1501 6.59252 58.0501 6.89252C57.9501 7.29252 57.7501 7.49253 57.4501 7.69253Z" fill="#FFC520"/>
<path d="M58.5502 10.0925C58.2835 10.2258 58.0169 10.2258 57.7502 10.0925C57.5502 9.95918 57.3835 9.79251 57.2502 9.59251C57.1835 9.32584 57.1835 9.05917 57.2502 8.79251C57.3502 8.59251 57.5502 8.39251 57.7502 8.29251C58.0169 8.15917 58.2835 8.12585 58.5502 8.19252C58.7502 8.29252 59.0502 8.49251 59.1502 8.79251C59.2502 9.09251 59.2502 9.39251 59.1502 9.59251C59.0169 9.85918 58.8169 10.0258 58.5502 10.0925Z" fill="#FFC520"/>
<path d="M59.1501 12.1924C58.7501 12.2924 58.3501 12.0924 58.2501 11.6924C58.1501 11.2924 58.3501 10.8924 58.7501 10.7924C59.1501 10.5924 59.6501 10.8924 59.7501 11.2924C59.8501 11.6924 59.5501 12.0924 59.1501 12.1924Z" fill="#FFC520"/>
<path d="M59.5501 14.0924C59.2501 14.0924 58.9501 13.8924 58.8501 13.5924C58.8501 13.2924 59.0501 12.9924 59.3501 12.8924C59.6501 12.7924 59.9501 12.9924 60.0501 13.3924C60.1501 13.6924 59.9501 13.9924 59.5501 14.0924Z" fill="#FFC520"/>
<path d="M50.6502 2.09238C50.5502 2.39238 50.5502 2.69239 50.7502 2.99239C50.8502 3.29239 51.0502 3.49238 51.3502 3.59238C51.8502 3.79238 52.5502 3.59238 52.8502 3.09238C53.1502 2.49238 52.9502 1.69238 52.2502 1.39238C51.9502 1.29238 51.5502 1.29238 51.3502 1.39238C51.0502 1.59238 50.7502 1.79238 50.6502 2.09238Z" fill="#FFC520"/>
<path d="M48.0501 1.39244C47.9501 1.89244 48.3501 2.39244 48.8501 2.59244C49.3501 2.69244 49.8501 2.39244 50.0501 1.89244C50.2501 1.29244 49.8501 0.792436 49.3501 0.592436C48.7501 0.492436 48.2501 0.792439 48.0501 1.39244Z" fill="#FFC520"/>
<path d="M45.95 0.892336C45.85 1.39234 46.1501 1.69233 46.5501 1.79233C46.9501 1.89233 47.35 1.59234 47.45 1.19234C47.55 0.79234 47.25 0.39233 46.85 0.29233C46.45 0.19233 46.05 0.492336 45.95 0.892336Z" fill="#FFC520"/>
<path d="M44.8502 1.19238C44.9502 0.992383 44.9502 0.792383 44.9502 0.692383C44.9502 0.692383 44.9502 0.659043 44.9502 0.592377L44.8502 0.692383L44.7502 0.792374C44.6835 0.85904 44.6502 0.89238 44.6502 0.89238C44.6502 0.89238 44.6169 0.89238 44.5502 0.89238C44.5502 0.89238 44.5502 0.89238 44.6502 0.89238C44.6502 0.959046 44.6835 1.05905 44.7502 1.19238C44.7502 1.19238 44.7502 1.22571 44.7502 1.29237C44.7502 1.35904 44.7502 1.39238 44.7502 1.39238C44.7502 1.39238 44.9502 1.29238 45.0502 1.19238C45.1835 1.12572 45.2502 0.992374 45.2502 0.792374C45.2502 0.65904 45.2168 0.525713 45.1502 0.39238C45.0502 0.29238 44.8502 0.192383 44.6502 0.192383C44.5835 0.192383 44.5169 0.225707 44.4502 0.292374C44.4502 0.292374 44.4169 0.292374 44.3502 0.292374C44.3502 0.292374 44.3502 0.29238 44.2502 0.39238C44.1835 0.39238 44.1502 0.39238 44.1502 0.39238C44.1502 0.459046 44.1169 0.52571 44.0502 0.592377C43.9502 0.592377 43.9502 0.79238 43.9502 0.89238C43.9502 0.99238 44.0502 1.09238 44.0502 1.09238C44.0502 1.15904 44.0835 1.22571 44.1502 1.29237C44.2168 1.35904 44.2835 1.39238 44.3502 1.39238C44.3502 1.39238 44.3835 1.39238 44.4502 1.39238C44.6502 1.39238 44.7835 1.32572 44.8502 1.19238Z" fill="#FFC520"/>
</svg>
